<?xml version="1.0" encoding="UTF-8"?>
<svg xmlns="http://www.w3.org/2000/svg" viewBox="0 0 201 70" fill="none">
  <path d="M0.496822 16.6428V0.953125H12.7615V17.9462C12.7615 21.7072 14.5069 23.4883 18.6419 23.4883C22.7769 23.4883 24.5245 21.7095 24.5245 17.9462V0.953125H36.7916V16.6428C36.7916 27.9329 31.4035 31.8831 18.6419 31.8831C5.88018 31.8831 0.494446 27.9329 0.494446 16.6428H0.496822Z" fill="#3F3996"></path>
  <path d="M74.8674 53.3181V52.2347C74.8674 50.7209 73.6333 49.4956 72.1139 49.4956H69.4104C67.8886 49.4956 66.6569 50.7232 66.6569 52.2347V53.3181H74.8698H74.8674Z" fill="#3F3996"></path>
  <path d="M66.6545 57.46V58.2902C66.6545 59.9436 68.0028 61.2848 69.6648 61.2848H69.7338L70.4852 62.8886C70.5946 63.1227 70.9275 63.1227 71.0368 62.8886L71.7882 61.2848H71.8572C73.5193 61.2848 74.8675 59.9436 74.8675 58.2902V57.46H66.6545Z" fill="#3F3996"></path>
  <path d="M74.6487 0.936523H86.7683V6.33674H74.6487V0.936523ZM74.6487 8.45614H86.7493V31.1971H74.6487V8.45614Z" fill="#3F3996"></path>
  <path d="M104.416 0.936523H113.259V7.37515H107.377C106.29 7.37515 105.936 7.80802 105.936 8.88901V9.53713H113.259V16.6665H105.936V31.1995H93.8352V16.6665H89.7692V9.53713H93.8352V8.98836C93.8352 3.56685 96.5578 0.936523 104.416 0.936523ZM116.32 0.936523H128.439V6.33674H116.32V0.936523ZM116.32 8.45614H128.42V31.1971H116.32V8.45614Z" fill="#3F3996"></path>
  <path d="M131.44 20.3161V19.3936C131.44 11.1667 137.934 7.77002 148.061 7.77002C158.188 7.77002 164.644 10.8711 164.644 19.7886V21.3806H143.638V22.0854C143.638 24.6424 145.258 25.8559 148.082 25.8559C150.748 25.8559 152.03 25.0919 152.227 23.0505H164.485C164.109 28.8032 158.029 31.8877 148.061 31.8877C138.093 31.8877 131.44 28.5288 131.44 20.3185V20.3161ZM152.443 17.4114V17.0779C152.443 14.5256 150.943 13.5227 148.061 13.5227C145.179 13.5227 143.638 14.4878 143.638 17.0187V17.4138H152.443V17.4114Z" fill="#3F3996"></path>
  <path d="M167.642 20.0845V19.0224C167.642 12.0137 172.279 7.74888 179.584 7.74888C183.65 7.74888 186.769 9.0262 188.764 11.5785V0.936523H200.865V31.1971H189.059V27.5426C187.126 30.4497 183.868 31.8831 179.584 31.8831C172.279 31.8831 167.642 27.4645 167.642 20.0821V20.0845ZM184.579 24.5977C186.237 24.5977 187.58 24.2287 188.764 23.4221V16.3329C187.58 15.5263 186.218 15.1526 184.579 15.1526C181.776 15.1526 180.316 16.4512 180.316 19.0035V20.7326C180.316 23.3014 181.778 24.5977 184.579 24.5977Z" fill="#3F3996"></path>
  <path d="M106.093 47.0639C104.554 47.0639 103.151 47.3975 101.87 48.126V62.4793H89.7692V39.7407H101.594V44.022C103.451 40.7223 106.923 39.0547 111.64 39.0547C118.293 39.0547 121.77 42.4916 121.77 49.3016V62.4793H109.688V50.4039C109.688 48.126 108.601 47.0639 106.095 47.0639H106.093Z" fill="#3F3996"></path>
  <path d="M124.766 51.6032V50.6807C124.766 42.4538 131.259 39.0571 141.387 39.0571C151.514 39.0571 157.969 42.1582 157.969 51.0734V52.6653H136.964V53.3725C136.964 55.9248 138.583 57.143 141.408 57.143C144.073 57.143 145.355 56.3766 145.552 54.3329H157.81C157.434 60.0879 151.354 63.1701 141.387 63.1701C131.419 63.1701 124.766 59.8159 124.766 51.6056V51.6032ZM145.769 48.6938V48.3626C145.769 45.8056 144.268 44.8074 141.387 44.8074C138.505 44.8074 136.964 45.7678 136.964 48.3035V48.6938H145.769Z" fill="#3F3996"></path>
  <path d="M160.159 63.2482H171.173C172.85 63.2482 173.601 62.8153 174.134 61.6184L174.409 61.0105H166.277L158.402 39.7432H171.076L175.812 56.081H175.953L180.651 39.7432H193.344L185.152 61.8715C183.06 67.5296 179.448 69.649 171.138 69.649H160.164V63.2482H160.159Z" fill="#3F3996"></path>
  <path d="M70.7681 39.159C61.9393 39.1756 54.7155 41.7113 54.7488 50.5461V52.2468C54.7417 54.1107 55.0603 55.6908 55.6476 57.0296C56.1613 56.3531 56.7248 55.7003 57.3454 55.0829C59.269 53.1693 61.5113 51.769 63.901 50.8678C63.9604 48.3037 65.5678 47.2321 67.8172 46.8064C67.6032 46.4468 67.2894 46.0518 66.9422 45.8484C66.6711 45.6899 66.5665 45.7609 66.5285 45.7893C66.3192 45.9335 66.0291 45.8815 65.8841 45.671C65.7985 45.5456 65.789 45.3966 65.8342 45.2641C65.8437 45.1955 65.877 45.1293 65.9388 45.0867C65.9435 45.0844 65.9483 45.082 65.953 45.0773C65.9697 45.0607 65.9816 45.0418 66.0006 45.0276C66.4738 44.7035 67.0801 44.7721 67.6627 45.2192C68.0717 45.5314 68.5306 46.1038 68.7945 46.6668C69.4246 46.5982 70.0809 46.5556 70.7657 46.5462C71.5433 46.558 72.2923 46.6006 72.9961 46.6905C73.26 46.1204 73.7261 45.5362 74.1398 45.2192C74.7224 44.7721 75.3287 44.7012 75.8019 45.0276C76.0135 45.1719 76.0659 45.4605 75.9208 45.6686C75.7758 45.8791 75.4857 45.9312 75.2764 45.7869C75.236 45.7609 75.1338 45.6875 74.8627 45.846C74.4989 46.0589 74.1707 46.4823 73.9567 46.8537C76.1324 47.322 77.6519 48.4551 77.6233 51.0783C79.8061 51.9795 81.8534 53.3112 83.6297 55.0782C84.3858 55.8304 85.0587 56.6323 85.6555 57.472C86.3784 56.0433 86.7755 54.3189 86.7683 52.2421V50.5413C86.7683 41.7231 79.5969 39.1543 70.7681 39.1543V39.159Z" fill="#3F3996"></path>
  <path d="M61.5232 7.77002C57.0149 7.77002 53.6455 9.29807 51.7362 12.314V8.45599H39.9304V44.3368H24.477V36.3323H12.6712V62.5693H24.477V51.7192H39.9304V62.4818H51.7362L51.7528 16.8437C53.0368 16.1175 54.4373 15.784 55.9758 15.784C58.482 15.784 59.5686 16.8437 59.5686 19.1216V31.1993H71.6503V18.0217C71.6503 11.2069 68.1739 7.77002 61.5208 7.77002H61.5232Z" fill="#3F3996"></path>
</svg>
