<?xml version="1.0" encoding="UTF-8"?>
<svg id="Layer_1" xmlns="http://www.w3.org/2000/svg" viewBox="88.5 40 312 312">
  <path d="M189.92,223.18c0,21.43,17.37,38.8,38.8,38.8h.89l9.68,20.79c1.41,3.02,5.7,3.02,7.11,0l9.68-20.79h.89c21.43,0,38.8-17.37,38.8-38.8v-10.75h-105.86v10.75Z" fill="#3F3996" style="stroke-width:0px;"/>
  <path d="M295.23,85.25c-5.11-3.53-11.55-2.68-18.13,2.4-6.37,4.92-12.85,14.12-15.27,21.62-.52-.02-1.03-.04-1.56-.04h-34.84c-.52,0-1.04.02-1.55.04-2.42-7.5-8.9-16.7-15.29-21.62-6.57-5.07-13-5.92-18.12-2.39-1.49,1.03-1.86,3.07-.83,4.56,1.03,1.48,3.06,1.86,4.56.83,2.62-1.81,6.12-1.1,10.38,2.19,6.11,4.71,10.7,12.22,12.69,17.34-15.68,3.69-27.35,17.75-27.35,34.56v14.04h105.86v-14.04c0-16.8-11.68-30.87-27.35-34.56,1.99-5.11,6.58-12.63,12.68-17.33,4.26-3.28,7.77-4.01,10.39-2.2,1.5,1.03,3.53.65,4.56-.83,1.03-1.49.66-3.53-.83-4.56Z" fill="#3F3996" style="stroke-width:0px;"/>
  <path d="M88.74,249.79c0,46.76,52.98,58.32,73.02,21.88,15.36-27.93,9.72-112.98,9.72-112.98,0,0-82.74,44.34-82.74,91.1Z" fill="#3F3996" style="stroke-width:0px;"/>
  <path d="M317.37,158.7s-5.65,85.05,9.72,112.98c20.04,36.44,73.02,24.88,73.02-21.88s-82.74-91.1-82.74-91.1Z" fill="#3F3996" style="stroke-width:0px;"/>
</svg>